<svg width="336" height="128" viewBox="0 0 336 128" fill="none" xmlns="http://www.w3.org/2000/svg">
<path d="M51.6051 103.802C36.656 103.802 24.4629 91.6085 24.4629 76.6594C24.4629 47.8469 47.847 24.4628 76.6595 24.4628C91.6086 24.4628 103.802 36.6559 103.802 51.605C103.802 80.4176 80.4177 103.802 51.6051 103.802ZM76.6595 36.99C54.7787 36.99 36.9901 54.7786 36.9901 76.6594C36.9901 84.6768 43.5877 91.2745 51.6051 91.2745C73.486 91.2745 91.2746 73.4859 91.2746 51.605C91.2746 43.5876 84.6769 36.99 76.6595 36.99Z" fill="#1AE299"/>
<path d="M147.455 87.1818C144.045 87.1818 141.091 86.4318 138.591 84.9318C136.091 83.4318 134.152 81.3333 132.773 78.6364C131.409 75.9394 130.727 72.7879 130.727 69.1818C130.727 65.5758 131.409 62.4167 132.773 59.7045C134.152 56.9924 136.091 54.8864 138.591 53.3864C141.091 51.8864 144.045 51.1364 147.455 51.1364C150.864 51.1364 153.818 51.8864 156.318 53.3864C158.818 54.8864 160.75 56.9924 162.114 59.7045C163.492 62.4167 164.182 65.5758 164.182 69.1818C164.182 72.7879 163.492 75.9394 162.114 78.6364C160.75 81.3333 158.818 83.4318 156.318 84.9318C153.818 86.4318 150.864 87.1818 147.455 87.1818ZM147.5 80.5909C149.348 80.5909 150.894 80.0833 152.136 79.0682C153.379 78.0379 154.303 76.6591 154.909 74.9318C155.53 73.2045 155.841 71.2803 155.841 69.1591C155.841 67.0227 155.53 65.0909 154.909 63.3636C154.303 61.6212 153.379 60.2348 152.136 59.2045C150.894 58.1742 149.348 57.6591 147.5 57.6591C145.606 57.6591 144.03 58.1742 142.773 59.2045C141.53 60.2348 140.598 61.6212 139.977 63.3636C139.371 65.0909 139.068 67.0227 139.068 69.1591C139.068 71.2803 139.371 73.2045 139.977 74.9318C140.598 76.6591 141.53 78.0379 142.773 79.0682C144.03 80.0833 145.606 80.5909 147.5 80.5909ZM171.165 86.5V51.5909H179.028V57.5227H179.438C180.165 55.5227 181.369 53.9621 183.051 52.8409C184.733 51.7045 186.741 51.1364 189.074 51.1364C191.438 51.1364 193.43 51.7121 195.051 52.8636C196.688 54 197.839 55.553 198.506 57.5227H198.869C199.642 55.5833 200.945 54.0379 202.778 52.8864C204.627 51.7197 206.816 51.1364 209.347 51.1364C212.559 51.1364 215.18 52.1515 217.21 54.1818C219.241 56.2121 220.256 59.1742 220.256 63.0682V86.5H212.006V64.3409C212.006 62.1742 211.43 60.5909 210.278 59.5909C209.127 58.5758 207.718 58.0682 206.051 58.0682C204.066 58.0682 202.513 58.6894 201.392 59.9318C200.286 61.1591 199.733 62.7576 199.733 64.7273V86.5H191.665V64C191.665 62.197 191.119 60.7576 190.028 59.6818C188.953 58.6061 187.544 58.0682 185.801 58.0682C184.619 58.0682 183.544 58.3712 182.574 58.9773C181.604 59.5682 180.831 60.4091 180.256 61.5C179.68 62.5758 179.392 63.8333 179.392 65.2727V86.5H171.165ZM228.602 86.5V51.5909H236.83V86.5H228.602ZM232.739 46.6364C231.436 46.6364 230.314 46.2045 229.375 45.3409C228.436 44.4621 227.966 43.4091 227.966 42.1818C227.966 40.9394 228.436 39.8864 229.375 39.0227C230.314 38.1439 231.436 37.7045 232.739 37.7045C234.057 37.7045 235.178 38.1439 236.102 39.0227C237.042 39.8864 237.511 40.9394 237.511 42.1818C237.511 43.4091 237.042 44.4621 236.102 45.3409C235.178 46.2045 234.057 46.6364 232.739 46.6364ZM260.472 100.318C257.517 100.318 254.979 99.9167 252.858 99.1136C250.737 98.3258 249.032 97.2652 247.744 95.9318C246.456 94.5985 245.562 93.1212 245.062 91.5L252.472 89.7045C252.805 90.3864 253.29 91.0606 253.926 91.7273C254.563 92.4091 255.419 92.9697 256.494 93.4091C257.585 93.8636 258.956 94.0909 260.608 94.0909C262.941 94.0909 264.873 93.5227 266.403 92.3864C267.934 91.2652 268.699 89.4167 268.699 86.8409V80.2273H268.29C267.866 81.0758 267.244 81.947 266.426 82.8409C265.623 83.7348 264.555 84.4848 263.222 85.0909C261.903 85.697 260.244 86 258.244 86C255.562 86 253.131 85.3712 250.949 84.1136C248.782 82.8409 247.055 80.947 245.767 78.4318C244.494 75.9015 243.858 72.7348 243.858 68.9318C243.858 65.0985 244.494 61.8636 245.767 59.2273C247.055 56.5758 248.79 54.5682 250.972 53.2045C253.153 51.8258 255.585 51.1364 258.267 51.1364C260.313 51.1364 261.994 51.4848 263.312 52.1818C264.646 52.8636 265.706 53.6894 266.494 54.6591C267.282 55.6136 267.881 56.5152 268.29 57.3636H268.744V51.5909H276.858V87.0682C276.858 90.053 276.146 92.5227 274.722 94.4773C273.297 96.4318 271.35 97.8939 268.881 98.8636C266.411 99.8333 263.608 100.318 260.472 100.318ZM260.54 79.5455C262.282 79.5455 263.767 79.1212 264.994 78.2727C266.222 77.4242 267.153 76.2045 267.79 74.6136C268.426 73.0227 268.744 71.1136 268.744 68.8864C268.744 66.6894 268.426 64.7652 267.79 63.1136C267.169 61.4621 266.244 60.1818 265.017 59.2727C263.805 58.3485 262.313 57.8864 260.54 57.8864C258.706 57.8864 257.176 58.3636 255.949 59.3182C254.722 60.2727 253.797 61.5833 253.176 63.25C252.555 64.9015 252.244 66.7803 252.244 68.8864C252.244 71.0227 252.555 72.8939 253.176 74.5C253.813 76.0909 254.744 77.3333 255.972 78.2273C257.214 79.1061 258.737 79.5455 260.54 79.5455ZM300.517 87.1818C297.108 87.1818 294.153 86.4318 291.653 84.9318C289.153 83.4318 287.214 81.3333 285.835 78.6364C284.472 75.9394 283.79 72.7879 283.79 69.1818C283.79 65.5758 284.472 62.4167 285.835 59.7045C287.214 56.9924 289.153 54.8864 291.653 53.3864C294.153 51.8864 297.108 51.1364 300.517 51.1364C303.926 51.1364 306.881 51.8864 309.381 53.3864C311.881 54.8864 313.813 56.9924 315.176 59.7045C316.555 62.4167 317.244 65.5758 317.244 69.1818C317.244 72.7879 316.555 75.9394 315.176 78.6364C313.813 81.3333 311.881 83.4318 309.381 84.9318C306.881 86.4318 303.926 87.1818 300.517 87.1818ZM300.562 80.5909C302.411 80.5909 303.956 80.0833 305.199 79.0682C306.441 78.0379 307.366 76.6591 307.972 74.9318C308.593 73.2045 308.903 71.2803 308.903 69.1591C308.903 67.0227 308.593 65.0909 307.972 63.3636C307.366 61.6212 306.441 60.2348 305.199 59.2045C303.956 58.1742 302.411 57.6591 300.562 57.6591C298.669 57.6591 297.093 58.1742 295.835 59.2045C294.593 60.2348 293.661 61.6212 293.04 63.3636C292.434 65.0909 292.131 67.0227 292.131 69.1591C292.131 71.2803 292.434 73.2045 293.04 74.9318C293.661 76.6591 294.593 78.0379 295.835 79.0682C297.093 80.0833 298.669 80.5909 300.562 80.5909Z" fill="#0D0D0D"/>
</svg>
