<svg width="288" height="128" viewBox="0 0 288 128" fill="none" xmlns="http://www.w3.org/2000/svg">
<path d="M51.6051 103.802C36.656 103.802 24.4629 91.6086 24.4629 76.6594C24.4629 47.8469 47.847 24.4628 76.6595 24.4628C91.6086 24.4628 103.802 36.656 103.802 51.6051C103.802 80.4176 80.4177 103.802 51.6051 103.802ZM76.6595 36.99C54.7787 36.99 36.9901 54.7786 36.9901 76.6594C36.9901 84.6768 43.5877 91.2745 51.6051 91.2745C73.486 91.2745 91.2746 73.4859 91.2746 51.6051C91.2746 43.5877 84.6769 36.99 76.6595 36.99Z" fill="#1AE299"/>
<path d="M142.591 58.5114C140.034 58.5114 137.818 57.9489 135.943 56.8239C134.068 55.6989 132.614 54.125 131.58 52.1023C130.557 50.0795 130.045 47.7159 130.045 45.0114C130.045 42.3068 130.557 39.9375 131.58 37.9034C132.614 35.8693 134.068 34.2898 135.943 33.1648C137.818 32.0398 140.034 31.4773 142.591 31.4773C145.148 31.4773 147.364 32.0398 149.239 33.1648C151.114 34.2898 152.563 35.8693 153.585 37.9034C154.619 39.9375 155.136 42.3068 155.136 45.0114C155.136 47.7159 154.619 50.0795 153.585 52.1023C152.563 54.125 151.114 55.6989 149.239 56.8239C147.364 57.9489 145.148 58.5114 142.591 58.5114ZM142.625 53.5682C144.011 53.5682 145.17 53.1875 146.102 52.4261C147.034 51.6534 147.727 50.6193 148.182 49.3239C148.648 48.0284 148.881 46.5852 148.881 44.9943C148.881 43.392 148.648 41.9432 148.182 40.6477C147.727 39.3409 147.034 38.3011 146.102 37.5284C145.17 36.7557 144.011 36.3693 142.625 36.3693C141.205 36.3693 140.023 36.7557 139.08 37.5284C138.148 38.3011 137.449 39.3409 136.983 40.6477C136.528 41.9432 136.301 43.392 136.301 44.9943C136.301 46.5852 136.528 48.0284 136.983 49.3239C137.449 50.6193 138.148 51.6534 139.08 52.4261C140.023 53.1875 141.205 53.5682 142.625 53.5682ZM160.374 58V31.8182H166.271V36.267H166.578C167.124 34.767 168.027 33.5966 169.288 32.7557C170.55 31.9034 172.055 31.4773 173.805 31.4773C175.578 31.4773 177.072 31.9091 178.288 32.7727C179.516 33.625 180.379 34.7898 180.879 36.267H181.152C181.732 34.8125 182.709 33.6534 184.084 32.7898C185.47 31.9148 187.112 31.4773 189.01 31.4773C191.419 31.4773 193.385 32.2386 194.908 33.7614C196.43 35.2841 197.192 37.5057 197.192 40.4261V58H191.004V41.3807C191.004 39.7557 190.572 38.5682 189.709 37.8182C188.845 37.0568 187.788 36.6761 186.538 36.6761C185.05 36.6761 183.885 37.142 183.044 38.0739C182.214 38.9943 181.8 40.1932 181.8 41.6705V58H175.749V41.125C175.749 39.7727 175.339 38.6932 174.521 37.8864C173.714 37.0795 172.658 36.6761 171.351 36.6761C170.464 36.6761 169.658 36.9034 168.93 37.358C168.203 37.8011 167.624 38.4318 167.192 39.25C166.76 40.0568 166.544 41 166.544 42.0795V58H160.374ZM203.452 58V31.8182H209.622V58H203.452ZM206.554 28.1023C205.577 28.1023 204.736 27.7784 204.031 27.1307C203.327 26.4716 202.974 25.6818 202.974 24.7614C202.974 23.8295 203.327 23.0398 204.031 22.392C204.736 21.733 205.577 21.4034 206.554 21.4034C207.543 21.4034 208.384 21.733 209.077 22.392C209.781 23.0398 210.134 23.8295 210.134 24.7614C210.134 25.6818 209.781 26.4716 209.077 27.1307C208.384 27.7784 207.543 28.1023 206.554 28.1023ZM227.354 68.3636C225.138 68.3636 223.234 68.0625 221.643 67.4602C220.053 66.8693 218.774 66.0739 217.808 65.0739C216.842 64.0739 216.172 62.9659 215.797 61.75L221.354 60.4034C221.604 60.9148 221.967 61.4205 222.445 61.9205C222.922 62.4318 223.564 62.8523 224.371 63.1818C225.189 63.5227 226.217 63.6932 227.456 63.6932C229.206 63.6932 230.655 63.267 231.803 62.4148C232.95 61.5739 233.524 60.1875 233.524 58.2557V53.2955H233.217C232.899 53.9318 232.433 54.5852 231.82 55.2557C231.217 55.9261 230.416 56.4886 229.416 56.9432C228.428 57.3977 227.183 57.625 225.683 57.625C223.672 57.625 221.848 57.1534 220.212 56.2102C218.587 55.2557 217.291 53.8352 216.325 51.9489C215.371 50.0511 214.893 47.6761 214.893 44.8239C214.893 41.9489 215.371 39.5227 216.325 37.5455C217.291 35.5568 218.592 34.0511 220.229 33.0284C221.865 31.9943 223.689 31.4773 225.7 31.4773C227.234 31.4773 228.496 31.7386 229.484 32.2614C230.484 32.7727 231.28 33.392 231.871 34.1193C232.462 34.8352 232.911 35.5114 233.217 36.1477H233.558V31.8182H239.643V58.4261C239.643 60.6648 239.109 62.517 238.041 63.983C236.973 65.4489 235.513 66.5455 233.661 67.2727C231.808 68 229.706 68.3636 227.354 68.3636ZM227.405 52.7841C228.712 52.7841 229.825 52.4659 230.746 51.8295C231.666 51.1932 232.365 50.2784 232.842 49.0852C233.32 47.892 233.558 46.4602 233.558 44.7898C233.558 43.142 233.32 41.6989 232.842 40.4602C232.376 39.2216 231.683 38.2614 230.763 37.5795C229.854 36.8864 228.734 36.5398 227.405 36.5398C226.03 36.5398 224.882 36.8977 223.962 37.6136C223.041 38.3295 222.348 39.3125 221.882 40.5625C221.416 41.8011 221.183 43.2102 221.183 44.7898C221.183 46.392 221.416 47.7955 221.882 49C222.359 50.1932 223.058 51.125 223.979 51.7955C224.911 52.4545 226.053 52.7841 227.405 52.7841ZM257.388 58.5114C254.831 58.5114 252.615 57.9489 250.74 56.8239C248.865 55.6989 247.411 54.125 246.376 52.1023C245.354 50.0795 244.842 47.7159 244.842 45.0114C244.842 42.3068 245.354 39.9375 246.376 37.9034C247.411 35.8693 248.865 34.2898 250.74 33.1648C252.615 32.0398 254.831 31.4773 257.388 31.4773C259.945 31.4773 262.161 32.0398 264.036 33.1648C265.911 34.2898 267.359 35.8693 268.382 37.9034C269.416 39.9375 269.933 42.3068 269.933 45.0114C269.933 47.7159 269.416 50.0795 268.382 52.1023C267.359 54.125 265.911 55.6989 264.036 56.8239C262.161 57.9489 259.945 58.5114 257.388 58.5114ZM257.422 53.5682C258.808 53.5682 259.967 53.1875 260.899 52.4261C261.831 51.6534 262.524 50.6193 262.979 49.3239C263.445 48.0284 263.678 46.5852 263.678 44.9943C263.678 43.392 263.445 41.9432 262.979 40.6477C262.524 39.3409 261.831 38.3011 260.899 37.5284C259.967 36.7557 258.808 36.3693 257.422 36.3693C256.001 36.3693 254.82 36.7557 253.876 37.5284C252.945 38.3011 252.246 39.3409 251.78 40.6477C251.325 41.9432 251.098 43.392 251.098 44.9943C251.098 46.5852 251.325 48.0284 251.78 49.3239C252.246 50.6193 252.945 51.6534 253.876 52.4261C254.82 53.1875 256.001 53.5682 257.422 53.5682Z" fill="#0D0D0D"/>
<path d="M132.818 93.1761C132 93.1761 131.286 92.9886 130.676 92.6136C130.066 92.2386 129.593 91.714 129.256 91.0398C128.919 90.3655 128.75 89.5777 128.75 88.6761C128.75 87.7708 128.919 86.9792 129.256 86.3011C129.593 85.6231 130.066 85.0966 130.676 84.7216C131.286 84.3466 132 84.1591 132.818 84.1591C133.636 84.1591 134.35 84.3466 134.96 84.7216C135.57 85.0966 136.044 85.6231 136.381 86.3011C136.718 86.9792 136.886 87.7708 136.886 88.6761C136.886 89.5777 136.718 90.3655 136.381 91.0398C136.044 91.714 135.57 92.2386 134.96 92.6136C134.35 92.9886 133.636 93.1761 132.818 93.1761ZM132.824 91.75C133.354 91.75 133.794 91.6098 134.142 91.3295C134.491 91.0492 134.748 90.6761 134.915 90.2102C135.085 89.7443 135.17 89.2311 135.17 88.6705C135.17 88.1136 135.085 87.6023 134.915 87.1364C134.748 86.6667 134.491 86.2898 134.142 86.0057C133.794 85.7216 133.354 85.5795 132.824 85.5795C132.29 85.5795 131.847 85.7216 131.494 86.0057C131.146 86.2898 130.886 86.6667 130.716 87.1364C130.549 87.6023 130.466 88.1136 130.466 88.6705C130.466 89.2311 130.549 89.7443 130.716 90.2102C130.886 90.6761 131.146 91.0492 131.494 91.3295C131.847 91.6098 132.29 91.75 132.824 91.75ZM138.783 93V84.2727H140.413V85.6932H140.521C140.703 85.2121 141 84.8371 141.413 84.5682C141.826 84.2955 142.321 84.1591 142.896 84.1591C143.48 84.1591 143.968 84.2955 144.362 84.5682C144.76 84.8409 145.054 85.2159 145.243 85.6932H145.334C145.542 85.2273 145.874 84.8561 146.328 84.5795C146.783 84.2992 147.324 84.1591 147.953 84.1591C148.745 84.1591 149.391 84.4072 149.891 84.9034C150.394 85.3996 150.646 86.1477 150.646 87.1477V93H148.947V87.3068C148.947 86.7159 148.786 86.2879 148.464 86.0227C148.143 85.7576 147.758 85.625 147.311 85.625C146.758 85.625 146.328 85.7955 146.021 86.1364C145.714 86.4735 145.561 86.9072 145.561 87.4375V93H143.868V87.1989C143.868 86.7254 143.72 86.3447 143.425 86.0568C143.129 85.7689 142.745 85.625 142.271 85.625C141.949 85.625 141.652 85.7102 141.379 85.8807C141.11 86.0473 140.893 86.2803 140.726 86.5795C140.563 86.8788 140.482 87.2254 140.482 87.6193V93H138.783ZM152.923 93V84.2727H154.622V93H152.923ZM153.781 82.9261C153.486 82.9261 153.232 82.8277 153.02 82.6307C152.812 82.4299 152.707 82.1913 152.707 81.9148C152.707 81.6345 152.812 81.3958 153.02 81.1989C153.232 80.9981 153.486 80.8977 153.781 80.8977C154.077 80.8977 154.329 80.9981 154.537 81.1989C154.749 81.3958 154.855 81.6345 154.855 81.9148C154.855 82.1913 154.749 82.4299 154.537 82.6307C154.329 82.8277 154.077 82.9261 153.781 82.9261ZM160.567 96.4545C159.874 96.4545 159.277 96.3636 158.777 96.1818C158.281 96 157.875 95.7595 157.561 95.4602C157.247 95.161 157.012 94.8333 156.857 94.4773L158.317 93.875C158.419 94.0417 158.555 94.2178 158.726 94.4034C158.9 94.5928 159.135 94.7538 159.43 94.8864C159.73 95.0189 160.114 95.0852 160.584 95.0852C161.228 95.0852 161.76 94.928 162.18 94.6136C162.601 94.303 162.811 93.8068 162.811 93.125V91.4091H162.703C162.601 91.5947 162.453 91.8011 162.26 92.0284C162.071 92.2557 161.809 92.4527 161.476 92.6193C161.143 92.786 160.709 92.8693 160.175 92.8693C159.485 92.8693 158.864 92.7083 158.311 92.3864C157.762 92.0606 157.326 91.5814 157.004 90.9489C156.686 90.3125 156.527 89.5303 156.527 88.6023C156.527 87.6742 156.684 86.8788 156.999 86.2159C157.317 85.553 157.752 85.0455 158.305 84.6932C158.858 84.3371 159.485 84.1591 160.186 84.1591C160.728 84.1591 161.165 84.25 161.499 84.4318C161.832 84.6098 162.091 84.8182 162.277 85.0568C162.466 85.2955 162.612 85.5057 162.714 85.6875H162.839V84.2727H164.504V93.1932C164.504 93.9432 164.33 94.5587 163.982 95.0398C163.633 95.5208 163.161 95.8769 162.567 96.108C161.976 96.339 161.309 96.4545 160.567 96.4545ZM160.55 91.4602C161.038 91.4602 161.451 91.3466 161.788 91.1193C162.129 90.8883 162.387 90.5587 162.561 90.1307C162.739 89.6989 162.828 89.1818 162.828 88.5795C162.828 87.9924 162.741 87.4754 162.567 87.0284C162.393 86.5814 162.137 86.233 161.8 85.983C161.463 85.7292 161.046 85.6023 160.55 85.6023C160.038 85.6023 159.612 85.7348 159.271 86C158.93 86.2614 158.673 86.6174 158.499 87.0682C158.328 87.5189 158.243 88.0227 158.243 88.5795C158.243 89.1515 158.33 89.6534 158.504 90.0852C158.679 90.517 158.936 90.8542 159.277 91.0966C159.622 91.339 160.046 91.4602 160.55 91.4602ZM170.459 93.1761C169.641 93.1761 168.927 92.9886 168.317 92.6136C167.707 92.2386 167.233 91.714 166.896 91.0398C166.559 90.3655 166.391 89.5777 166.391 88.6761C166.391 87.7708 166.559 86.9792 166.896 86.3011C167.233 85.6231 167.707 85.0966 168.317 84.7216C168.927 84.3466 169.641 84.1591 170.459 84.1591C171.277 84.1591 171.991 84.3466 172.601 84.7216C173.211 85.0966 173.684 85.6231 174.021 86.3011C174.358 86.9792 174.527 87.7708 174.527 88.6761C174.527 89.5777 174.358 90.3655 174.021 91.0398C173.684 91.714 173.211 92.2386 172.601 92.6136C171.991 92.9886 171.277 93.1761 170.459 93.1761ZM170.464 91.75C170.995 91.75 171.434 91.6098 171.783 91.3295C172.131 91.0492 172.389 90.6761 172.555 90.2102C172.726 89.7443 172.811 89.2311 172.811 88.6705C172.811 88.1136 172.726 87.6023 172.555 87.1364C172.389 86.6667 172.131 86.2898 171.783 86.0057C171.434 85.7216 170.995 85.5795 170.464 85.5795C169.93 85.5795 169.487 85.7216 169.135 86.0057C168.786 86.2898 168.527 86.6667 168.357 87.1364C168.19 87.6023 168.107 88.1136 168.107 88.6705C168.107 89.2311 168.19 89.7443 168.357 90.2102C168.527 90.6761 168.786 91.0492 169.135 91.3295C169.487 91.6098 169.93 91.75 170.464 91.75ZM177.543 93.108C177.232 93.108 176.965 92.9981 176.741 92.7784C176.518 92.5549 176.406 92.286 176.406 91.9716C176.406 91.661 176.518 91.3958 176.741 91.1761C176.965 90.9527 177.232 90.8409 177.543 90.8409C177.853 90.8409 178.12 90.9527 178.344 91.1761C178.567 91.3958 178.679 91.661 178.679 91.9716C178.679 92.1799 178.626 92.3712 178.52 92.5455C178.418 92.7159 178.281 92.8523 178.111 92.9545C177.94 93.0568 177.751 93.108 177.543 93.108ZM188.42 84.2727L185.256 93H183.438L180.267 84.2727H182.091L184.301 90.9886H184.392L186.597 84.2727H188.42ZM191.716 87.8182V93H190.017V84.2727H191.648V85.6932H191.756C191.956 85.2311 192.271 84.8598 192.699 84.5795C193.131 84.2992 193.674 84.1591 194.33 84.1591C194.924 84.1591 195.445 84.2841 195.892 84.5341C196.339 84.7803 196.686 85.1477 196.932 85.6364C197.178 86.125 197.301 86.7292 197.301 87.4489V93H195.602V87.6534C195.602 87.0208 195.438 86.5265 195.108 86.1705C194.778 85.8106 194.326 85.6307 193.75 85.6307C193.356 85.6307 193.006 85.7159 192.699 85.8864C192.396 86.0568 192.155 86.3068 191.977 86.6364C191.803 86.9621 191.716 87.3561 191.716 87.8182Z" fill="#888888"/>
</svg>
